<svg id="Layer_1" data-name="Layer 1" xmlns="http://www.w3.org/2000/svg" width="91.76" height="18" viewBox="0 0 91.76 18"><path d="M9.32,16.93H6.84V8.57l2.61,0a4,4,0,0,1,2.37.6,1.9,1.9,0,0,1,.82,1.63,1.76,1.76,0,0,1-.41,1.15,2,2,0,0,1-.85.64,2.26,2.26,0,0,1,1,.71,1.84,1.84,0,0,1,.46,1.27C12.88,16.11,11.69,16.91,9.32,16.93Zm.17-5a1,1,0,0,0,.59-.2.88.88,0,0,0,.25-.74,1.12,1.12,0,0,0-.2-.7.88.88,0,0,0-.69-.25H9.06V12Zm0,3.42a1.3,1.3,0,0,0,.75-.19.79.79,0,0,0,.29-.71,1.22,1.22,0,0,0-.23-.73,1,1,0,0,0-.86-.32H9.06v1.94Z" transform="translate(-2 -4)" style="fill:grey"/><path d="M16.4,17a3.09,3.09,0,0,1-1.64-.39,2.31,2.31,0,0,1-.93-1.09A4.14,4.14,0,0,1,13.54,14,3.83,3.83,0,0,1,14,12.09a2.77,2.77,0,0,1,1.15-1.15,3.19,3.19,0,0,1,1.6-.4,2.28,2.28,0,0,1,1.7.55,1.93,1.93,0,0,1,.52,1.38A1.87,1.87,0,0,1,18.06,14a4.31,4.31,0,0,1-2.21.77.78.78,0,0,0,.25.39.83.83,0,0,0,.6.19,3.22,3.22,0,0,0,.72-.09c.25-.06.48-.13.66-.19l.24-.08,0,0h.15l.43,1.49h-.05s0,0-.11,0l-.28.11a7.8,7.8,0,0,1-.88.28A5.06,5.06,0,0,1,16.4,17Zm-.66-3.66a1.14,1.14,0,0,0,.8-.32.82.82,0,0,0,.27-.53.36.36,0,0,0-.35-.39.49.49,0,0,0-.39.2,1.21,1.21,0,0,0-.24.51A2.54,2.54,0,0,0,15.74,13.37Z" transform="translate(-2 -4)" style="fill:grey"/><path d="M25.32,16.92H23.18V13.06a1.6,1.6,0,0,0-.09-.61.28.28,0,0,0-.28-.21.73.73,0,0,0-.52.36,1.73,1.73,0,0,0-.27,1v3.29H19.89V8.33L22,8v3a1.93,1.93,0,0,1,.57-.26,2.91,2.91,0,0,1,.89-.14,1.61,1.61,0,0,1,1.42.61,2.72,2.72,0,0,1,.42,1.59Z" transform="translate(-2 -4)" style="fill:grey"/><path d="M32.06,16.92H29.92V13.06a1.6,1.6,0,0,0-.09-.61.29.29,0,0,0-.28-.21c-.17,0-.34.12-.52.36a1.73,1.73,0,0,0-.28,1v3.29H26.63V8.33L28.75,8v3a2.16,2.16,0,0,1,.58-.26,2.89,2.89,0,0,1,.88-.14,1.59,1.59,0,0,1,1.42.61,2.65,2.65,0,0,1,.43,1.59Z" transform="translate(-2 -4)" style="fill:grey"/><path d="M37.63,17l-.1-.09-.07-.11a1.8,1.8,0,0,1-.27-.42,1.84,1.84,0,0,1-.13-.27,1.61,1.61,0,0,1-.5.52,1.8,1.8,0,0,1-1.12.33,2.09,2.09,0,0,1-1.84-.86,3.83,3.83,0,0,1-.6-2.24,3.36,3.36,0,0,1,.87-2.37,3,3,0,0,1,2.26-.94,8.23,8.23,0,0,1,1.37.13q.7.13,1,.21l.18,0v3a5.12,5.12,0,0,0,.16,1.46,2.7,2.7,0,0,0,.34.77h0a2.51,2.51,0,0,1,.14.21l.12.12Zm-1.88-1.66c.2,0,.37-.18.53-.53a3.26,3.26,0,0,0,.23-1.26V12.26a2.24,2.24,0,0,0-.38-.06.69.69,0,0,0-.69.43,2.82,2.82,0,0,0-.19,1.14,6.86,6.86,0,0,0,0,.81,1.53,1.53,0,0,0,.14.58A.34.34,0,0,0,35.75,15.37Z" transform="translate(-2 -4)" style="fill:grey"/><path d="M42.64,16.92H40.51V13.69a5.12,5.12,0,0,0-.16-1.46,2.48,2.48,0,0,0-.31-.76l-.18-.23-.11-.12,1.86-.59v.06h-.06a.36.36,0,0,1,.07.09l.07.06a3.25,3.25,0,0,1,.24.38,1.2,1.2,0,0,1,.14.32,1.61,1.61,0,0,1,.62-.59,2,2,0,0,1,1-.27,2.22,2.22,0,0,1,.92.18l-.57,2.08a1,1,0,0,0-.63-.21.71.71,0,0,0-.33.1,1.16,1.16,0,0,0-.33.36,1.29,1.29,0,0,0-.15.66Z" transform="translate(-2 -4)" style="fill:grey"/><path d="M46.34,10.15a1.06,1.06,0,0,1-.85-.34,1.2,1.2,0,0,1-.31-.8,1.34,1.34,0,0,1,.31-.89,1.16,1.16,0,0,1,.9-.35,1.07,1.07,0,0,1,.85.34,1.21,1.21,0,0,1,.31.84,1.3,1.3,0,0,1-.31.86A1.15,1.15,0,0,1,46.34,10.15ZM47,17a1.77,1.77,0,0,1-1.18-.39,1.34,1.34,0,0,1-.47-1.08V10.66h2.13V15a.44.44,0,0,0,.06.28.2.2,0,0,0,.16.06h.17l.24-.07.19,1.37a1,1,0,0,1-.43.24A2.48,2.48,0,0,1,47,17Z" transform="translate(-2 -4)" style="fill:grey"/><path d="M58.9,16.94H56.14V8.57l.71,0h2.08a4.23,4.23,0,0,1,2.28.55,3.31,3.31,0,0,1,1.32,1.52,5.43,5.43,0,0,1,.43,2.2,4.4,4.4,0,0,1-1,3A3.89,3.89,0,0,1,58.9,16.94Zm-.06-1.62a1.44,1.44,0,0,0,1.37-.66,3.72,3.72,0,0,0,.38-1.83c0-1.77-.58-2.66-1.75-2.66h-.49v5.14h.49Z" transform="translate(-2 -4)" style="fill:grey"/><path d="M66.57,17a3.09,3.09,0,0,1-1.64-.39A2.26,2.26,0,0,1,64,15.55,4.14,4.14,0,0,1,63.71,14a3.83,3.83,0,0,1,.42-1.87,2.81,2.81,0,0,1,1.14-1.15,3.26,3.26,0,0,1,1.61-.4,2.28,2.28,0,0,1,1.7.55,2,2,0,0,1,.52,1.38A1.87,1.87,0,0,1,68.23,14a4.31,4.31,0,0,1-2.21.77.78.78,0,0,0,.25.39.81.81,0,0,0,.59.19,3.08,3.08,0,0,0,.72-.09c.26-.06.49-.13.67-.19l.24-.08,0,0h.15l.42,1.49h0s0,0-.11,0l-.28.11a8.54,8.54,0,0,1-.88.28A5.06,5.06,0,0,1,66.57,17Zm-.66-3.66a1.15,1.15,0,0,0,.8-.32.82.82,0,0,0,.27-.53.36.36,0,0,0-.35-.39.51.51,0,0,0-.4.2,1.51,1.51,0,0,0-.24.51A2.44,2.44,0,0,0,65.91,13.37Z" transform="translate(-2 -4)" style="fill:grey"/><path d="M72.58,17a3.09,3.09,0,0,1-1.64-.39A2.28,2.28,0,0,1,70,15.55,3.79,3.79,0,0,1,69.69,14a4,4,0,0,1,.41-1.87,2.75,2.75,0,0,1,1.09-1.15,3,3,0,0,1,1.54-.4,2.28,2.28,0,0,1,1.09.26,2.54,2.54,0,0,1,.81.72l-1.09,1.14a2.44,2.44,0,0,0-.34-.36.56.56,0,0,0-.35-.11,1,1,0,0,0-.3.05c-.4.11-.61.62-.61,1.52a1.92,1.92,0,0,0,.36,1.34.94.94,0,0,0,.72.27,3,3,0,0,0,1-.25l.09,0,.39,1.45a1.18,1.18,0,0,1-.28.16,3.75,3.75,0,0,1-.67.22A4,4,0,0,1,72.58,17Z" transform="translate(-2 -4)" style="fill:grey"/><path d="M77.86,17a2.62,2.62,0,0,1-2.18-.86A3.58,3.58,0,0,1,75,13.86a4.18,4.18,0,0,1,.33-1.69,2.57,2.57,0,0,1,1-1.19A2.94,2.94,0,0,1,78,10.54a2.6,2.6,0,0,1,2.16.86,3.61,3.61,0,0,1,.69,2.33,4.16,4.16,0,0,1-.33,1.68,2.6,2.6,0,0,1-1,1.19A2.93,2.93,0,0,1,77.86,17ZM78,15.38c.23,0,.39-.15.48-.44a4.16,4.16,0,0,0,.12-1.09,5.52,5.52,0,0,0-.06-.86,1.49,1.49,0,0,0-.22-.59.54.54,0,0,0-.45-.2c-.23,0-.39.15-.48.43a4.14,4.14,0,0,0-.12,1.1,4.54,4.54,0,0,0,.07.86,1.2,1.2,0,0,0,.22.58A.51.51,0,0,0,78,15.38Z" transform="translate(-2 -4)" style="fill:grey"/><path d="M84.24,16.92H82.11V13.69A5.58,5.58,0,0,0,82,12.23a2.71,2.71,0,0,0-.32-.76l-.17-.23-.12-.12,1.86-.59v.06h-.06s.07.07.07.09l.07.06a3.25,3.25,0,0,1,.24.38,1.2,1.2,0,0,1,.14.32,1.61,1.61,0,0,1,.62-.59,2,2,0,0,1,1-.27,2.19,2.19,0,0,1,.92.18l-.57,2.08a1,1,0,0,0-.63-.21.71.71,0,0,0-.33.1,1.16,1.16,0,0,0-.33.36,1.29,1.29,0,0,0-.15.66Z" transform="translate(-2 -4)" style="fill:grey"/><path d="M87.37,12.08,86.55,11a2,2,0,0,0,.63-.69,1.52,1.52,0,0,0,.15-.63,2,2,0,0,0,0-.44,3.64,3.64,0,0,0-.11-.39,2.71,2.71,0,0,1-.09-.41l.19-.15a1.74,1.74,0,0,1,.37-.15A2.31,2.31,0,0,1,88.28,8a1,1,0,0,1,.87.37,1.47,1.47,0,0,1,.24.83,2.91,2.91,0,0,1-.46,1.55A3.78,3.78,0,0,1,87.37,12.08Z" transform="translate(-2 -4)" style="fill:grey"/><path d="M91.45,17a5.17,5.17,0,0,1-1.49-.2,7.12,7.12,0,0,1-1-.42l.72-1.57a1.3,1.3,0,0,1,.23.1l.56.26a1.56,1.56,0,0,0,.67.16.75.75,0,0,0,.34-.07.23.23,0,0,0,.12-.2.45.45,0,0,0-.17-.33,1.43,1.43,0,0,0-.46-.27,3.43,3.43,0,0,1-1.34-.84,1.91,1.91,0,0,1,.18-2.56,2.32,2.32,0,0,1,1.64-.55,4.78,4.78,0,0,1,1.12.13,8.63,8.63,0,0,1,.89.28v0l.21.08h.14L93,12.67l-.2-.09a4,4,0,0,0-.53-.24,1.68,1.68,0,0,0-.64-.14.44.44,0,0,0-.25.06.2.2,0,0,0-.09.18c0,.19.27.4.82.62a3.18,3.18,0,0,1,1.16.74A1.68,1.68,0,0,1,93.73,15a2.05,2.05,0,0,1-.26,1,2,2,0,0,1-.77.75A2.54,2.54,0,0,1,91.45,17Z" transform="translate(-2 -4)" style="fill:grey"/><rect x="0.5" y="0.5" width="50" height="17" style="fill:none;stroke:#6c90ba;stroke-miterlimit:10"/></svg>